<svg width="24" height="25" viewBox="0 0 24 25" fill="none" xmlns="http://www.w3.org/2000/svg">
<path d="M14.5309 9.97188L9.4709 15.0319C8.8209 14.3819 8.4209 13.4919 8.4209 12.5019C8.4209 10.5219 10.0209 8.92188 12.0009 8.92188C12.9909 8.92188 13.8809 9.32188 14.5309 9.97188Z" stroke="#898989" stroke-width="1.5" stroke-linecap="round" stroke-linejoin="round"/>
<path d="M17.8198 6.26852C16.0698 4.94852 14.0698 4.22852 11.9998 4.22852C8.46984 4.22852 5.17984 6.30852 2.88984 9.90852C1.98984 11.3185 1.98984 13.6885 2.88984 15.0985C3.67984 16.3385 4.59984 17.4085 5.59984 18.2685" stroke="#898989" stroke-width="1.5" stroke-linecap="round" stroke-linejoin="round"/>
<path d="M8.4209 20.0297C9.5609 20.5097 10.7709 20.7697 12.0009 20.7697C15.5309 20.7697 18.8209 18.6897 21.1109 15.0897C22.0109 13.6797 22.0109 11.3097 21.1109 9.89969C20.7809 9.37969 20.4209 8.88969 20.0509 8.42969" stroke="#898989" stroke-width="1.5" stroke-linecap="round" stroke-linejoin="round"/>
<path d="M15.5095 13.2012C15.2495 14.6112 14.0995 15.7612 12.6895 16.0212" stroke="#898989" stroke-width="1.5" stroke-linecap="round" stroke-linejoin="round"/>
<path d="M9.46902 15.0293L1.99902 22.4993" stroke="#898989" stroke-width="1.5" stroke-linecap="round" stroke-linejoin="round"/>
<path d="M21.9993 2.5L14.5293 9.97" stroke="#898989" stroke-width="1.5" stroke-linecap="round" stroke-linejoin="round"/>
</svg>
